HIERARCHY
ROOT hip
{
  OFFSET 0 0 0
  CHANNELS 6 Xposition Yposition Zposition Zrotation Yrotation Xrotation
  JOINT abdomen
  {
    OFFSET 0 20.6881 -0.73152
    CHANNELS 3 Zrotation Xrotation Yrotation
    JOINT chest
    {
      OFFSET 0 11.7043 -0.48768
      CHANNELS 3 Zrotation Xrotation Yrotation
      JOINT neck
      {
        OFFSET 0 22.1894 -2.19456
        CHANNELS 3 Zrotation Xrotation Yrotation
        JOINT head
        {
          OFFSET -0.24384 7.07133 1.2192
          CHANNELS 3 Zrotation Xrotation Yrotation
          JOINT leftEye
          {
            OFFSET 4.14528 8.04674 8.04672
            CHANNELS 3 Zrotation Xrotation Yrotation
            End Site
            {
              OFFSET 1 0 0
            }
          }
          JOINT rightEye
          {
            OFFSET -3.6576 8.04674 8.04672
            CHANNELS 3 Zrotation Xrotation Yrotation
            End Site
            {
              OFFSET 1 0 0
            }
          }
        }
      }
      JOINT rCollar
      {
        OFFSET -2.68224 19.2634 -4.8768
        CHANNELS 3 Zrotation Xrotation Yrotation
        JOINT rShldr
        {
          OFFSET -8.77824 -1.95073 1.46304
          CHANNELS 3 Zrotation Xrotation Yrotation
          JOINT rForeArm
          {
            OFFSET -28.1742 -1.7115 0.48768
            CHANNELS 3 Zrotation Xrotation Yrotation
            JOINT rHand
            {
              OFFSET -22.5879 0.773209 7.07136
              CHANNELS 3 Zrotation Xrotation Yrotation
              JOINT rThumb1
              {
                OFFSET -1.2192 -0.487915 3.41376
                CHANNELS 3 Zrotation Xrotation Yrotation
                JOINT rThumb2
                {
                  OFFSET -3.37035 -0.52449 3.41376
                  CHANNELS 3 Zrotation Xrotation Yrotation
                  End Site
                  {
                    OFFSET -1.78271 -1.18214 1.43049
                  }
                }
              }
              JOINT rIndex1
              {
                OFFSET -7.75947 0.938293 5.60832
                CHANNELS 3 Zrotation Xrotation Yrotation
                JOINT rIndex2
                {
                  OFFSET -2.54057 -0.884171 1.56538
                  CHANNELS 3 Zrotation Xrotation Yrotation
                  End Site
                  {
                    OFFSET -1.62519 -0.234802 1.16502
                  }
                }
              }
              JOINT rMid1
              {
                OFFSET -8.24714 1.18213 3.41376
                CHANNELS 3 Zrotation Xrotation Yrotation
                JOINT rMid2
                {
                  OFFSET -3.10165 -0.590103 1.0647
                  CHANNELS 3 Zrotation Xrotation Yrotation
                  End Site
                  {
                    OFFSET -2.48547 -0.328903 0.83742
                  }
                }
              }
              JOINT rRing1
              {
                OFFSET -8.82822 0.546677 1.51678
                CHANNELS 3 Zrotation Xrotation Yrotation
                JOINT rRing2
                {
                  OFFSET -2.60934 -0.819778 -0.0198488
                  CHANNELS 3 Zrotation Xrotation Yrotation
                  End Site
                  {
                    OFFSET -2.33842 -0.294052 0.168128
                  }
                }
              }
              JOINT rPinky1
              {
                OFFSET -8.27202 -0.0477905 -0.4584
                CHANNELS 3 Zrotation Xrotation Yrotation
                JOINT rPinky2
                {
                  OFFSET -1.82734 -0.647385 -0.700984
                  CHANNELS 3 Zrotation Xrotation Yrotation
                  End Site
                  {
                    OFFSET -1.69225 -0.51767 -0.607171
                  }
                }
              }
            }
          }
        }
      }
      JOINT lCollar
      {
        OFFSET 2.68224 19.2634 -4.8768
        CHANNELS 3 Zrotation Xrotation Yrotation
        JOINT lShldr
        {
          OFFSET 8.77824 -1.95073 1.46304
          CHANNELS 3 Zrotation Xrotation Yrotation
          JOINT lForeArm
          {
            OFFSET 28.1742 -1.7115 0.48768
            CHANNELS 3 Zrotation Xrotation Yrotation
            JOINT lHand
            {
              OFFSET 22.5879 0.773209 7.07136
              CHANNELS 3 Zrotation Xrotation Yrotation
              JOINT lThumb1
              {
                OFFSET 1.2192 -0.487915 3.41376
                CHANNELS 3 Zrotation Xrotation Yrotation
                JOINT lThumb2
                {
                  OFFSET 3.37035 -0.52449 3.41376
                  CHANNELS 3 Zrotation Xrotation Yrotation
                  End Site
                  {
                    OFFSET 1.78271 -1.18214 1.43049
                  }
                }
              }
              JOINT lIndex1
              {
                OFFSET 7.75947 0.938293 5.60832
                CHANNELS 3 Zrotation Xrotation Yrotation
                JOINT lIndex2
                {
                  OFFSET 2.54057 -0.884171 1.56538
                  CHANNELS 3 Zrotation Xrotation Yrotation
                  End Site
                  {
                    OFFSET 1.62519 -0.234802 1.16502
                  }
                }
              }
              JOINT lMid1
              {
                OFFSET 8.24714 1.18213 3.41376
                CHANNELS 3 Zrotation Xrotation Yrotation
                JOINT lMid2
                {
                  OFFSET 3.10165 -0.590103 1.0647
                  CHANNELS 3 Zrotation Xrotation Yrotation
                  End Site
                  {
                    OFFSET 2.48547 -0.328903 0.83742
                  }
                }
              }
              JOINT lRing1
              {
                OFFSET 8.82822 0.546677 1.51678
                CHANNELS 3 Zrotation Xrotation Yrotation
                JOINT lRing2
                {
                  OFFSET 2.60934 -0.819778 -0.0198488
                  CHANNELS 3 Zrotation Xrotation Yrotation
                  End Site
                  {
                    OFFSET 2.33842 -0.294052 0.168128
                  }
                }
              }
              JOINT lPinky1
              {
                OFFSET 8.27202 -0.0477905 -0.4584
                CHANNELS 3 Zrotation Xrotation Yrotation
                JOINT lPinky2
                {
                  OFFSET 1.82734 -0.647385 -0.700984
                  CHANNELS 3 Zrotation Xrotation Yrotation
                  End Site
                  {
                    OFFSET 1.69225 -0.51767 -0.607171
                  }
                }
              }
            }
          }
        }
      }
    }
  }
  JOINT rButtock
  {
    OFFSET -8.77824 4.35084 1.2192
    CHANNELS 3 Zrotation Xrotation Yrotation
    JOINT rThigh
    {
      OFFSET 0 -1.70687 -2.19456
      CHANNELS 3 Zrotation Xrotation Yrotation
      JOINT rShin
      {
        OFFSET 0 -36.8199 0.73152
        CHANNELS 3 Zrotation Xrotation Yrotation
        JOINT rFoot
        {
          OFFSET 0.73152 -45.1104 -5.12064
          CHANNELS 3 Zrotation Xrotation Yrotation
          End Site
          {
            OFFSET -1.1221 -3.69964 12.103
          }
        }
      }
    }
  }
  JOINT lButtock
  {
    OFFSET 8.77824 4.35084 1.2192
    CHANNELS 3 Zrotation Xrotation Yrotation
    JOINT lThigh
    {
      OFFSET 0 -1.70687 -2.19456
      CHANNELS 3 Zrotation Xrotation Yrotation
      JOINT lShin
      {
        OFFSET 0 -36.8199 0.73152
        CHANNELS 3 Zrotation Xrotation Yrotation
        JOINT lFoot
        {
          OFFSET -0.73152 -45.1104 -5.12064
          CHANNELS 3 Zrotation Xrotation Yrotation
          End Site
          {
            OFFSET 1.1221 -3.69964 12.103
          }
        }
      }
    }
  }
}
MOTION
Frames:	4
Frame Time:	0.03333
0.05012005567550659 62.23299503326416 0.10856315493583679 -4.200827598571777 2.601957321166992 5.555704593658447 -2.5030510425567627 14.754549980163574 3.6519227027893066 2.8462648391723633 -9.714073181152344 1.0982856750488281 -5.260096073150635 15.138629913330078 -3.8312718868255615 8.87399673461914 -24.14546775817871 -5.5094780921936035 0.033996596932411194 -0.055766452103853226 0.05710496008396149 0.000978959840722382 0.09895835071802139 0.040924206376075745 -0.035534974187612534 0.03234321251511574 0.009285662323236465 44.45944595336914 36.95591735839844 19.490690231323242 -27.63570213317871 -28.606975555419922 64.87387084960938 -0.17264744639396667 -12.453364372253418 -1.725174903869629 -0.06286371499300003 -0.01899394579231739 0.012551550753414631 0.05525674670934677 -3.69547851732932e-05 -0.002921378705650568 -0.002186718862503767 0.006201453041285276 0.09036608785390854 7.7889084815979 5.475039005279541 0.38400208950042725 0.026160279288887978 -0.02883903495967388 -0.01793426275253296 2.9493486881256104 0.9627082943916321 0.11642419546842575 0.08046098798513412 0.05363404378294945 0.06948952376842499 10.328609466552734 0.690353274345398 -0.019010109826922417 -0.013890164904296398 0.008855566382408142 -0.046443771570920944 2.2403571605682373 -0.8050803542137146 -0.24630135297775269 -0.00877355970442295 -0.02798892930150032 0.0010045120725408196 -52.56859588623047 39.72144317626953 -29.327871322631836 27.155542373657227 -26.648136138916016 -61.739749908447266 0.10999640077352524 -13.792548179626465 2.0608506202697754 0.01999058946967125 -0.031526338309049606 0.010162482969462872 -0.06127461791038513 -0.06508345901966095 -0.027469176799058914 0.10135435312986374 -0.06961461901664734 0.0035840393975377083 -7.776153564453125 5.5160369873046875 -0.41795217990875244 0.009339950047433376 0.015119819901883602 0.06820080429315567 -2.8695027828216553 0.9151337742805481 -0.007258422207087278 -0.049953583627939224 0.08204178512096405 -0.05759795382618904 -10.215758323669434 0.7117031216621399 -0.01657760888338089 0.08112394064664841 -0.045734815299510956 -0.047608278691768646 -2.1975021362304688 -0.6957810521125793 0.26068857312202454 -0.11685413867235184 -0.045039210468530655 -0.014705594629049301 -25.417274475097656 -40.49043655395508 -20.962703704833984 -1.5582605600357056 65.74183654785156 2.55816912651062 -3.584670066833496 -10.914923667907715 -9.877608299255371 0.006734694354236126 -0.014780156314373016 0.0027380280662328005 30.396825790405273 -39.91228103637695 23.184694290161133 1.4305940866470337 65.9944076538086 -2.6543118953704834 4.270002841949463 -11.136634826660156 13.608892440795898
0.15358030796051025 62.211376428604126 0.19877245649695396 -4.134305953979492 2.8306539058685303 5.6949143409729 -2.6385364532470703 14.683609962463379 3.8081815242767334 2.9906044006347656 -9.67141056060791 1.2028776407241821 -5.404308319091797 15.23756217956543 -3.9525816440582275 8.931509017944336 -24.11087417602539 -5.716813087463379 0.1187041699886322 -0.13849686086177826 0.1479576975107193 -0.04960738494992256 0.18054568767547607 0.040883712470531464 -0.07762216776609421 0.06889861077070236 -0.007509324699640274 43.97071838378906 36.468082427978516 19.69101333618164 -27.63218116760254 -28.59427261352539 64.97481536865234 -0.11775463074445724 -12.303339004516602 -1.615444540977478 -0.17551027238368988 0.009837612509727478 0.012539652176201344 0.0711144208908081 -0.006710183806717396 -0.06019402667880058 -0.016364559531211853 -0.04545386880636215 0.104833222925663 7.869065761566162 5.498682975769043 0.3962734639644623 -0.06743530929088593 -0.027012115344405174 0.058986082673072815 2.9871225357055664 0.9342398643493652 0.10143377631902695 0.11390192061662674 0.05855977162718773 0.07382404804229736 10.332268714904785 0.680364727973938 -0.05624669790267944 0.02107529528439045 -0.001078048488125205 -0.08834797888994217 2.279386043548584 -0.8704496026039124 -0.22255688905715942 -0.025493735447525978 -0.014538637362420559 0.09606798738241196 -52.55765914916992 39.55892562866211 -29.17696189880371 27.31220054626465 -26.79428482055664 -61.87254333496094 0.17550751566886902 -14.258079528808594 2.149906873703003 0.02798384800553322 -0.023385675624012947 0.010552599094808102 -0.09225066006183624 -0.03643648326396942 -0.019985955208539963 0.17177535593509674 -0.04519842192530632 -0.024461496621370316 -7.793258190155029 5.5782670974731445 -0.401879221200943 0.01924200728535652 0.03171331062912941 0.10146643966436386 -2.8935225009918213 0.8834580183029175 0.12198200821876526 -0.07551904022693634 0.04728199169039726 -0.1136535108089447 -10.215282440185547 0.7497722506523132 -0.0075856843031942844 0.21427658200263977 -0.11408790946006775 -0.08025570213794708 -2.1820645332336426 -0.6645827889442444 0.3159368336200714 -0.17690151929855347 -0.08315856009721756 -0.016485944390296936 -25.62824821472168 -40.543739318847656 -20.98940658569336 -1.6519237756729126 65.69317626953125 2.493806838989258 -3.5525498390197754 -10.875452995300293 -9.95225715637207 0.016772866249084473 -0.03337458521127701 0.014837292954325676 30.53730583190918 -40.04290771484375 23.356201171875 1.4676090478897095 65.98795318603516 -2.7773051261901855 4.289397716522217 -11.334524154663086 13.488335609436035
0.4644789732992649 66.58604145050049 0.585954450070858 -8.313396453857422 -32.09461975097656 0.459855854511261 1.709641695022583 13.063119888305664 6.354629993438721 0.799514889717102 -8.129768371582031 1.829038381576538 -2.4956419467926025 12.872920989990234 3.288515090942383 4.363489151000977 -22.459545135498047 5.966625690460205 0.314581960439682 -0.3055591583251953 0.1694096028804779 -0.02420991286635399 0.5013818740844727 0.12393280118703842 -0.06820282340049744 0.05622898414731026 0.11379014700651169 76.21957397460938 50.52812194824219 -18.18480110168457 -28.30119514465332 -32.38466262817383 70.85394287109375 -1.997539758682251 -40.09736251831055 -6.496407508850098 -0.5981680750846863 -0.2714292109012604 -0.11400298774242401 -0.04459701105952263 -0.026146236807107925 -0.07027238607406616 0.1111619621515274 -0.054420627653598785 0.23128142952919006 7.768767833709717 5.3813676834106445 0.2943814694881439 -0.5094388127326965 0.17541088163852692 0.12255904078483582 3.0150835514068604 0.9451276659965515 0.007987494580447674 0.1831798255443573 0.2372714728116989 0.08645182102918625 10.528707504272461 0.6744112372398376 -0.254862904548645 -0.12297874689102173 0.13399475812911987 -0.33556684851646423 2.257007598876953 -0.8529083728790283 -0.37887516617774963 0.006506690755486488 -0.07961434870958328 0.10739408433437347 -54.82747268676758 15.68004035949707 -32.282711029052734 21.674144744873047 -14.338497161865234 -41.90568923950195 0.11858291178941727 13.507546424865723 -1.84389328956604 -0.015085000544786453 0.048365138471126556 0.2618967592716217 -0.10405468195676804 -0.21575981378555298 0.09613170474767685 0.14507293701171875 -0.363226056098938 -0.10711008310317993 -8.071192741394043 5.627760887145996 -0.1798257827758789 0.22032971680164337 -0.008905447088181973 0.2439926713705063 -3.0320448875427246 0.733644425868988 0.45450711250305176 -0.2571558952331543 0.10483945906162262 -0.017464838922023773 -10.1442289352417 0.6367852091789246 0.20163144171237946 0.17014065384864807 -0.03844887390732765 -0.36342310905456543 -2.105567455291748 -0.7574871182441711 0.4871312975883484 -0.36041492223739624 -0.07937710732221603 -0.14487487077713013 -8.449430465698242 -18.962604522705078 -3.1238648891448975 -0.009735221043229103 54.538394927978516 1.4185495376586914 -9.48293399810791 -17.64946746826172 -23.78795623779297 0.4853377342224121 0.1260913908481598 0.3696862757205963 33.682762145996094 -48.789669036865234 21.963483810424805 0.8842305541038513 54.05323028564453 -0.8462669849395752 1.3108574151992798 1.4725290536880493 4.969561576843262
1.1886942200362682 67.78258681297302 0.8415292017161846 -1.4776920080184937 -20.32877540588379 6.167590141296387 1.1881568431854248 15.436127662658691 6.753013610839844 -0.3224817216396332 -7.19002628326416 1.9672675132751465 -2.5036556720733643 12.97927188873291 3.11604905128479 3.997511863708496 -25.6980037689209 7.226436138153076 0.002166931051760912 -0.08594493567943573 0.16560330986976624 0.0389380007982254 0.07325419038534164 -0.228168785572052 -0.2229616492986679 -0.12331686913967133 -0.024679090827703476 71.68153381347656 48.25904846191406 -13.06971549987793 -28.356678009033203 -33.73902893066406 72.62425994873047 -3.493864059448242 -46.135555267333984 -8.618764877319336 -0.7626416683197021 -0.3891648054122925 -0.12638232111930847 -0.06920544803142548 -0.37806960940361023 -0.34281277656555176 0.524171769618988 -0.10614468157291412 0.11665703356266022 7.796975612640381 5.24446964263916 0.7370089292526245 -0.6223199963569641 0.16644568741321564 0.2336239069700241 3.1667141914367676 1.036618709564209 -0.4100915491580963 0.3419390618801117 0.10500137507915497 -0.1559629887342453 10.489564895629883 0.5117729902267456 -0.3136742413043976 -0.3479257822036743 0.13227839767932892 -0.2901146411895752 2.185126543045044 -1.1781588792800903 -0.36312079429626465 -0.027224479243159294 -0.05332150682806969 0.2617810070514679 -51.1613655090332 23.459016799926758 -29.868057250976562 21.421117782592773 -15.407355308532715 -43.895023345947266 0.4099895656108856 2.2410340309143066 -0.6309956908226013 0.07634730637073517 0.15836311876773834 0.21090538799762726 -0.34061989188194275 -0.1076352521777153 -0.0805838331580162 -0.22706997394561768 -0.1678791642189026 0.10275972634553909 -7.391066074371338 5.434380531311035 -0.30970755219459534 0.0033717129845172167 0.2024557888507843 0.49261099100112915 -3.057610511779785 0.4196787178516388 0.24823805689811707 -0.16474348306655884 0.043555691838264465 0.36130061745643616 -9.822543144226074 0.5071093440055847 -0.10975127667188644 0.2299111932516098 -0.321968674659729 -0.4519311785697937 -2.313169479370117 -0.7303518652915955 0.41590702533721924 -0.46353796124458313 0.007605011574923992 0.12325108051300049 -2.107821226119995 -19.8961124420166 4.293104648590088 0.09450747817754745 59.25566482543945 1.1652542352676392 -11.169520378112793 -18.481040954589844 -27.2700138092041 0.8663207292556763 0.4584939181804657 0.1969790756702423 23.21533966064453 -51.044708251953125 6.753312587738037 0.34209680557250977 46.37255096435547 0.29900413751602173 -0.07241363823413849 9.70238208770752 4.966102123260498
